<?xml version="1.0" encoding="UTF-8" standalone="no"?>
<!DOCTYPE svg PUBLIC "-//W3C//DTD SVG 1.1//EN"
 "http://www.w3.org/Graphics/SVG/1.1/DTD/svg11.dtd">
<!-- Generated by graphviz version 2.47.0 (20210316.0004)
 -->
<!-- Title: dependencies Pages: 1 -->
<svg width="504pt" height="211pt"
 viewBox="0.00 0.00 504.00 211.00" xmlns="http://www.w3.org/2000/svg" xmlns:xlink="http://www.w3.org/1999/xlink">
<g id="graph0" class="graph" transform="scale(1 1) rotate(0) translate(4 207)">
<title>dependencies</title>
<polygon fill="white" stroke="transparent" points="-4,4 -4,-207 500,-207 500,4 -4,4"/>
<text text-anchor="start" x="227.01" y="-42.4" font-family="Times-12" font-weight="bold" font-size="14.00">Legend</text>
<polygon fill="#ffffb3" stroke="transparent" points="14,-10 14,-30 34,-30 34,-10 14,-10"/>
<text text-anchor="start" x="37.63" y="-15.4" font-family="Times-12" font-size="14.00"> &#160;Declarations</text>
<polygon fill="#8dd3c7" stroke="transparent" points="127,-10 127,-30 147,-30 147,-10 127,-10"/>
<text text-anchor="start" x="150.73" y="-15.4" font-family="Times-12" font-size="14.00"> &#160;Module</text>
<polygon fill="#80b1d3" stroke="transparent" points="213,-10 213,-30 233,-30 233,-10 213,-10"/>
<text text-anchor="start" x="236.78" y="-15.4" font-family="Times-12" font-size="14.00"> &#160;Bootstrap</text>
<polygon fill="#fdb462" stroke="transparent" points="310,-10 310,-30 330,-30 330,-10 310,-10"/>
<text text-anchor="start" x="333.67" y="-15.4" font-family="Times-12" font-size="14.00"> &#160;Providers</text>
<polygon fill="#fb8072" stroke="transparent" points="406,-10 406,-30 426,-30 426,-10 406,-10"/>
<text text-anchor="start" x="429.73" y="-15.4" font-family="Times-12" font-size="14.00"> &#160;Exports</text>
<g id="clust1" class="cluster">
<title>cluster_MainModule</title>
<polygon fill="none" stroke="black" stroke-dasharray="1,5" points="130,-70 130,-195 366,-195 366,-70 130,-70"/>
</g>
<g id="clust3" class="cluster">
<title>cluster_MainModule_imports</title>
<polygon fill="none" stroke="black" points="138,-78 138,-130 358,-130 358,-78 138,-78"/>
</g>
<!-- ShopsModule -->
<g id="node1" class="node">
<title>ShopsModule</title>
<polygon fill="#8dd3c7" stroke="black" points="349.78,-122 346.78,-126 325.78,-126 322.78,-122 256.22,-122 256.22,-86 349.78,-86 349.78,-122"/>
<text text-anchor="middle" x="303" y="-99.8" font-family="Times,serif" font-size="14.00">ShopsModule</text>
</g>
<!-- MainModule -->
<g id="node3" class="node">
<title>MainModule</title>
<polygon fill="#8dd3c7" stroke="black" points="291.6,-187 288.6,-191 267.6,-191 264.6,-187 202.4,-187 202.4,-151 291.6,-151 291.6,-187"/>
<text text-anchor="middle" x="247" y="-164.8" font-family="Times,serif" font-size="14.00">MainModule</text>
</g>
<!-- ShopsModule&#45;&gt;MainModule -->
<g id="edge1" class="edge">
<title>ShopsModule&#45;&gt;MainModule</title>
<path fill="none" stroke="black" d="M273.83,-122.11C273.83,-122.11 273.83,-140.99 273.83,-140.99"/>
<polygon fill="black" stroke="black" points="270.33,-140.99 273.83,-150.99 277.33,-140.99 270.33,-140.99"/>
</g>
<!-- UsersModule -->
<g id="node2" class="node">
<title>UsersModule</title>
<polygon fill="#8dd3c7" stroke="black" points="237.92,-122 234.92,-126 213.92,-126 210.92,-122 146.08,-122 146.08,-86 237.92,-86 237.92,-122"/>
<text text-anchor="middle" x="192" y="-99.8" font-family="Times,serif" font-size="14.00">UsersModule</text>
</g>
<!-- UsersModule&#45;&gt;MainModule -->
<g id="edge2" class="edge">
<title>UsersModule&#45;&gt;MainModule</title>
<path fill="none" stroke="black" d="M220.08,-122.11C220.08,-122.11 220.08,-140.99 220.08,-140.99"/>
<polygon fill="black" stroke="black" points="216.58,-140.99 220.08,-150.99 223.58,-140.99 216.58,-140.99"/>
</g>
</g>
</svg>
