<?xml version="1.0" encoding="UTF-8" standalone="no"?>
<!DOCTYPE svg PUBLIC "-//W3C//DTD SVG 1.1//EN"
 "http://www.w3.org/Graphics/SVG/1.1/DTD/svg11.dtd">
<!-- Generated by graphviz version 2.47.0 (20210316.0004)
 -->
<!-- Title: dependencies Pages: 1 -->
<svg width="504pt" height="287pt"
 viewBox="0.00 0.00 504.00 287.00" xmlns="http://www.w3.org/2000/svg" xmlns:xlink="http://www.w3.org/1999/xlink">
<g id="graph0" class="graph" transform="scale(1 1) rotate(0) translate(4 283)">
<title>dependencies</title>
<polygon fill="white" stroke="transparent" points="-4,4 -4,-283 500,-283 500,4 -4,4"/>
<text text-anchor="start" x="227.01" y="-42.4" font-family="Times-12" font-weight="bold" font-size="14.00">Legend</text>
<polygon fill="#ffffb3" stroke="transparent" points="14,-10 14,-30 34,-30 34,-10 14,-10"/>
<text text-anchor="start" x="37.63" y="-15.4" font-family="Times-12" font-size="14.00"> &#160;Declarations</text>
<polygon fill="#8dd3c7" stroke="transparent" points="127,-10 127,-30 147,-30 147,-10 127,-10"/>
<text text-anchor="start" x="150.73" y="-15.4" font-family="Times-12" font-size="14.00"> &#160;Module</text>
<polygon fill="#80b1d3" stroke="transparent" points="213,-10 213,-30 233,-30 233,-10 213,-10"/>
<text text-anchor="start" x="236.78" y="-15.4" font-family="Times-12" font-size="14.00"> &#160;Bootstrap</text>
<polygon fill="#fdb462" stroke="transparent" points="310,-10 310,-30 330,-30 330,-10 310,-10"/>
<text text-anchor="start" x="333.67" y="-15.4" font-family="Times-12" font-size="14.00"> &#160;Providers</text>
<polygon fill="#fb8072" stroke="transparent" points="406,-10 406,-30 426,-30 426,-10 406,-10"/>
<text text-anchor="start" x="429.73" y="-15.4" font-family="Times-12" font-size="14.00"> &#160;Exports</text>
<g id="clust7" class="cluster">
<title>cluster_MainModule</title>
<polygon fill="none" stroke="black" stroke-dasharray="1,5" points="130,-146 130,-271 366,-271 366,-146 130,-146"/>
</g>
<g id="clust9" class="cluster">
<title>cluster_MainModule_imports</title>
<polygon fill="none" stroke="black" points="138,-154 138,-206 358,-206 358,-154 138,-154"/>
</g>
<g id="clust13" class="cluster">
<title>cluster_ShopsModule</title>
<polygon fill="none" stroke="black" stroke-dasharray="1,5" points="244,-70 244,-138 362,-138 362,-70 244,-70"/>
</g>
<g id="clust15" class="cluster">
<title>cluster_ShopsModule_imports</title>
<polygon fill="none" stroke="black" points="252,-78 252,-130 354,-130 354,-78 252,-78"/>
</g>
<!-- ShopsModule -->
<g id="node1" class="node">
<title>ShopsModule</title>
<polygon fill="#8dd3c7" stroke="black" points="349.78,-198 346.78,-202 325.78,-202 322.78,-198 256.22,-198 256.22,-162 349.78,-162 349.78,-198"/>
<text text-anchor="middle" x="303" y="-175.8" font-family="Times,serif" font-size="14.00">ShopsModule</text>
</g>
<!-- MainModule -->
<g id="node3" class="node">
<title>MainModule</title>
<polygon fill="#8dd3c7" stroke="black" points="291.6,-263 288.6,-267 267.6,-267 264.6,-263 202.4,-263 202.4,-227 291.6,-227 291.6,-263"/>
<text text-anchor="middle" x="247" y="-240.8" font-family="Times,serif" font-size="14.00">MainModule</text>
</g>
<!-- ShopsModule&#45;&gt;MainModule -->
<g id="edge1" class="edge">
<title>ShopsModule&#45;&gt;MainModule</title>
<path fill="none" stroke="black" d="M273.83,-198.11C273.83,-198.11 273.83,-216.99 273.83,-216.99"/>
<polygon fill="black" stroke="black" points="270.33,-216.99 273.83,-226.99 277.33,-216.99 270.33,-216.99"/>
</g>
<!-- UsersModule -->
<g id="node2" class="node">
<title>UsersModule</title>
<polygon fill="#8dd3c7" stroke="black" points="237.92,-198 234.92,-202 213.92,-202 210.92,-198 146.08,-198 146.08,-162 237.92,-162 237.92,-198"/>
<text text-anchor="middle" x="192" y="-175.8" font-family="Times,serif" font-size="14.00">UsersModule</text>
</g>
<!-- UsersModule&#45;&gt;MainModule -->
<g id="edge2" class="edge">
<title>UsersModule&#45;&gt;MainModule</title>
<path fill="none" stroke="black" d="M220.08,-198.11C220.08,-198.11 220.08,-216.99 220.08,-216.99"/>
<polygon fill="black" stroke="black" points="216.58,-216.99 220.08,-226.99 223.58,-216.99 216.58,-216.99"/>
</g>
<!-- CarsModule -->
<g id="node4" class="node">
<title>CarsModule</title>
<polygon fill="#8dd3c7" stroke="black" points="345.71,-122 342.71,-126 321.71,-126 318.71,-122 260.29,-122 260.29,-86 345.71,-86 345.71,-122"/>
<text text-anchor="middle" x="303" y="-99.8" font-family="Times,serif" font-size="14.00">CarsModule</text>
</g>
<!-- CarsModule&#45;&gt;ShopsModule -->
<g id="edge3" class="edge">
<title>CarsModule&#45;&gt;ShopsModule</title>
<path fill="none" stroke="black" d="M303,-122.01C303,-122.01 303,-151.85 303,-151.85"/>
<polygon fill="black" stroke="black" points="299.5,-151.85 303,-161.85 306.5,-151.85 299.5,-151.85"/>
</g>
</g>
</svg>
